<mxfile host="Electron" agent="Mozilla/5.0 (Windows NT 10.0; Win64; x64) AppleWebKit/537.36 (KHTML, like Gecko) draw.io/21.2.8 Chrome/112.0.5615.165 Electron/24.2.0 Safari/537.36" modified="2025-09-05T23:13:10.844Z" version="21.2.8" etag="PCJjQNFxfCYAJIGqhno7" type="device">
  <diagram name="Página-1" id="K6F2VXmRokkPtijeSDab">
    <mxGraphModel dx="3850" dy="2825" grid="1" gridSize="10" guides="1" tooltips="1" connect="1" arrows="1" fold="1" page="1" pageScale="1" pageWidth="827" pageHeight="1169" math="0" shadow="0">
      <root>
        <mxCell id="0" />
        <mxCell id="1" parent="0" />
        <mxCell id="s3fslwd2c2Yzy7W_j92R-4" style="edgeStyle=orthogonalEdgeStyle;rounded=0;orthogonalLoop=1;jettySize=auto;html=1;exitX=0;exitY=0.5;exitDx=0;exitDy=0;endArrow=none;endFill=0;" parent="1" source="s3fslwd2c2Yzy7W_j92R-2" target="s3fslwd2c2Yzy7W_j92R-3" edge="1">
          <mxGeometry relative="1" as="geometry">
            <Array as="points">
              <mxPoint x="340" y="130" />
              <mxPoint x="180" y="130" />
            </Array>
          </mxGeometry>
        </mxCell>
        <mxCell id="s3fslwd2c2Yzy7W_j92R-10" style="edgeStyle=orthogonalEdgeStyle;rounded=0;orthogonalLoop=1;jettySize=auto;html=1;exitX=1;exitY=0.5;exitDx=0;exitDy=0;entryX=0.5;entryY=1;entryDx=0;entryDy=0;endArrow=none;endFill=0;" parent="1" source="s3fslwd2c2Yzy7W_j92R-2" target="s3fslwd2c2Yzy7W_j92R-9" edge="1">
          <mxGeometry relative="1" as="geometry">
            <Array as="points">
              <mxPoint x="460" y="130" />
              <mxPoint x="615" y="130" />
              <mxPoint x="615" y="55" />
            </Array>
          </mxGeometry>
        </mxCell>
        <mxCell id="s3fslwd2c2Yzy7W_j92R-11" style="edgeStyle=orthogonalEdgeStyle;rounded=0;orthogonalLoop=1;jettySize=auto;html=1;exitX=0.25;exitY=0;exitDx=0;exitDy=0;entryX=0.5;entryY=1;entryDx=0;entryDy=0;endArrow=none;endFill=0;" parent="1" source="s3fslwd2c2Yzy7W_j92R-2" target="s3fslwd2c2Yzy7W_j92R-5" edge="1">
          <mxGeometry relative="1" as="geometry" />
        </mxCell>
        <mxCell id="s3fslwd2c2Yzy7W_j92R-13" style="edgeStyle=orthogonalEdgeStyle;rounded=0;orthogonalLoop=1;jettySize=auto;html=1;exitX=0.75;exitY=0;exitDx=0;exitDy=0;endArrow=none;endFill=0;" parent="1" source="s3fslwd2c2Yzy7W_j92R-2" target="s3fslwd2c2Yzy7W_j92R-12" edge="1">
          <mxGeometry relative="1" as="geometry">
            <Array as="points">
              <mxPoint x="430" y="90" />
              <mxPoint x="535" y="90" />
            </Array>
          </mxGeometry>
        </mxCell>
        <mxCell id="s3fslwd2c2Yzy7W_j92R-26" style="edgeStyle=orthogonalEdgeStyle;rounded=0;orthogonalLoop=1;jettySize=auto;html=1;exitX=0.5;exitY=0;exitDx=0;exitDy=0;entryX=0.5;entryY=1;entryDx=0;entryDy=0;endArrow=none;endFill=0;" parent="1" source="s3fslwd2c2Yzy7W_j92R-2" target="s3fslwd2c2Yzy7W_j92R-25" edge="1">
          <mxGeometry relative="1" as="geometry" />
        </mxCell>
        <mxCell id="s3fslwd2c2Yzy7W_j92R-34" style="edgeStyle=orthogonalEdgeStyle;rounded=0;orthogonalLoop=1;jettySize=auto;html=1;exitX=1;exitY=0.5;exitDx=0;exitDy=0;entryX=0;entryY=0.5;entryDx=0;entryDy=0;endArrow=none;endFill=0;" parent="1" source="s3fslwd2c2Yzy7W_j92R-2" target="s3fslwd2c2Yzy7W_j92R-33" edge="1">
          <mxGeometry relative="1" as="geometry" />
        </mxCell>
        <mxCell id="s3fslwd2c2Yzy7W_j92R-51" style="edgeStyle=orthogonalEdgeStyle;rounded=0;orthogonalLoop=1;jettySize=auto;html=1;exitX=0;exitY=0.5;exitDx=0;exitDy=0;entryX=1;entryY=0.5;entryDx=0;entryDy=0;endArrow=none;endFill=0;" parent="1" source="s3fslwd2c2Yzy7W_j92R-2" target="s3fslwd2c2Yzy7W_j92R-50" edge="1">
          <mxGeometry relative="1" as="geometry" />
        </mxCell>
        <mxCell id="s3fslwd2c2Yzy7W_j92R-2" value="Usuario" style="rounded=1;whiteSpace=wrap;html=1;" parent="1" vertex="1">
          <mxGeometry x="340" y="210" width="120" height="60" as="geometry" />
        </mxCell>
        <mxCell id="s3fslwd2c2Yzy7W_j92R-3" value="Nombre" style="ellipse;whiteSpace=wrap;html=1;" parent="1" vertex="1">
          <mxGeometry x="135" y="-10" width="100" height="60" as="geometry" />
        </mxCell>
        <mxCell id="s3fslwd2c2Yzy7W_j92R-5" value="Email" style="ellipse;whiteSpace=wrap;html=1;" parent="1" vertex="1">
          <mxGeometry x="190" y="-100" width="110" height="70" as="geometry" />
        </mxCell>
        <mxCell id="s3fslwd2c2Yzy7W_j92R-9" value="Tipo" style="ellipse;whiteSpace=wrap;html=1;" parent="1" vertex="1">
          <mxGeometry x="550" y="-15" width="110" height="70" as="geometry" />
        </mxCell>
        <mxCell id="s3fslwd2c2Yzy7W_j92R-12" value="ID(P.K)" style="ellipse;whiteSpace=wrap;html=1;" parent="1" vertex="1">
          <mxGeometry x="480" y="-100" width="110" height="70" as="geometry" />
        </mxCell>
        <mxCell id="s3fslwd2c2Yzy7W_j92R-18" style="edgeStyle=orthogonalEdgeStyle;rounded=0;orthogonalLoop=1;jettySize=auto;html=1;exitX=0;exitY=0.5;exitDx=0;exitDy=0;entryX=1;entryY=0.5;entryDx=0;entryDy=0;endArrow=none;endFill=0;" parent="1" source="s3fslwd2c2Yzy7W_j92R-14" target="s3fslwd2c2Yzy7W_j92R-17" edge="1">
          <mxGeometry relative="1" as="geometry">
            <Array as="points">
              <mxPoint x="330" y="425" />
            </Array>
          </mxGeometry>
        </mxCell>
        <mxCell id="s3fslwd2c2Yzy7W_j92R-14" value="crea" style="rhombus;whiteSpace=wrap;html=1;" parent="1" vertex="1">
          <mxGeometry x="330" y="390" width="70" height="70" as="geometry" />
        </mxCell>
        <mxCell id="s3fslwd2c2Yzy7W_j92R-21" style="edgeStyle=orthogonalEdgeStyle;rounded=0;orthogonalLoop=1;jettySize=auto;html=1;exitX=0.5;exitY=0;exitDx=0;exitDy=0;endArrow=none;endFill=0;" parent="1" source="s3fslwd2c2Yzy7W_j92R-17" target="s3fslwd2c2Yzy7W_j92R-20" edge="1">
          <mxGeometry relative="1" as="geometry" />
        </mxCell>
        <mxCell id="s3fslwd2c2Yzy7W_j92R-22" style="edgeStyle=orthogonalEdgeStyle;rounded=0;orthogonalLoop=1;jettySize=auto;html=1;exitX=0.25;exitY=0;exitDx=0;exitDy=0;entryX=0.5;entryY=1;entryDx=0;entryDy=0;endArrow=none;endFill=0;" parent="1" source="s3fslwd2c2Yzy7W_j92R-17" target="s3fslwd2c2Yzy7W_j92R-19" edge="1">
          <mxGeometry relative="1" as="geometry" />
        </mxCell>
        <mxCell id="s3fslwd2c2Yzy7W_j92R-24" style="edgeStyle=orthogonalEdgeStyle;rounded=0;orthogonalLoop=1;jettySize=auto;html=1;exitX=0.75;exitY=0;exitDx=0;exitDy=0;entryX=0.5;entryY=1;entryDx=0;entryDy=0;endArrow=none;endFill=0;" parent="1" source="s3fslwd2c2Yzy7W_j92R-17" target="s3fslwd2c2Yzy7W_j92R-23" edge="1">
          <mxGeometry relative="1" as="geometry" />
        </mxCell>
        <mxCell id="s3fslwd2c2Yzy7W_j92R-30" style="edgeStyle=orthogonalEdgeStyle;rounded=0;orthogonalLoop=1;jettySize=auto;html=1;exitX=0;exitY=0.5;exitDx=0;exitDy=0;entryX=1;entryY=0.5;entryDx=0;entryDy=0;endArrow=none;endFill=0;" parent="1" source="s3fslwd2c2Yzy7W_j92R-17" target="s3fslwd2c2Yzy7W_j92R-29" edge="1">
          <mxGeometry relative="1" as="geometry" />
        </mxCell>
        <mxCell id="s3fslwd2c2Yzy7W_j92R-37" style="edgeStyle=orthogonalEdgeStyle;rounded=0;orthogonalLoop=1;jettySize=auto;html=1;exitX=0.5;exitY=1;exitDx=0;exitDy=0;entryX=0;entryY=0.5;entryDx=0;entryDy=0;endArrow=none;endFill=0;" parent="1" source="s3fslwd2c2Yzy7W_j92R-17" target="s3fslwd2c2Yzy7W_j92R-36" edge="1">
          <mxGeometry relative="1" as="geometry" />
        </mxCell>
        <mxCell id="s3fslwd2c2Yzy7W_j92R-54" style="edgeStyle=orthogonalEdgeStyle;rounded=0;orthogonalLoop=1;jettySize=auto;html=1;exitX=0.25;exitY=1;exitDx=0;exitDy=0;entryX=1;entryY=0.5;entryDx=0;entryDy=0;endArrow=none;endFill=0;" parent="1" source="s3fslwd2c2Yzy7W_j92R-17" target="s3fslwd2c2Yzy7W_j92R-52" edge="1">
          <mxGeometry relative="1" as="geometry" />
        </mxCell>
        <mxCell id="s3fslwd2c2Yzy7W_j92R-17" value="Publicacion" style="rounded=1;whiteSpace=wrap;html=1;" parent="1" vertex="1">
          <mxGeometry x="20" y="395" width="120" height="60" as="geometry" />
        </mxCell>
        <mxCell id="s3fslwd2c2Yzy7W_j92R-19" value="Titulo" style="ellipse;whiteSpace=wrap;html=1;" parent="1" vertex="1">
          <mxGeometry x="-110" y="270" width="110" height="70" as="geometry" />
        </mxCell>
        <mxCell id="s3fslwd2c2Yzy7W_j92R-20" value="ID(P.K)" style="ellipse;whiteSpace=wrap;html=1;" parent="1" vertex="1">
          <mxGeometry x="25" y="270" width="110" height="70" as="geometry" />
        </mxCell>
        <mxCell id="s3fslwd2c2Yzy7W_j92R-23" value="Fecha" style="ellipse;whiteSpace=wrap;html=1;" parent="1" vertex="1">
          <mxGeometry x="170" y="270" width="110" height="70" as="geometry" />
        </mxCell>
        <mxCell id="s3fslwd2c2Yzy7W_j92R-25" value="Contraseña" style="ellipse;whiteSpace=wrap;html=1;" parent="1" vertex="1">
          <mxGeometry x="345" y="-110" width="110" height="70" as="geometry" />
        </mxCell>
        <mxCell id="s3fslwd2c2Yzy7W_j92R-28" style="edgeStyle=orthogonalEdgeStyle;rounded=0;orthogonalLoop=1;jettySize=auto;html=1;exitX=0.5;exitY=0;exitDx=0;exitDy=0;entryX=0.204;entryY=0.998;entryDx=0;entryDy=0;entryPerimeter=0;endArrow=none;endFill=0;" parent="1" source="s3fslwd2c2Yzy7W_j92R-14" target="s3fslwd2c2Yzy7W_j92R-2" edge="1">
          <mxGeometry relative="1" as="geometry" />
        </mxCell>
        <mxCell id="s3fslwd2c2Yzy7W_j92R-29" value="ID_usuario(F.K)" style="ellipse;whiteSpace=wrap;html=1;" parent="1" vertex="1">
          <mxGeometry x="-220" y="390" width="110" height="70" as="geometry" />
        </mxCell>
        <mxCell id="s3fslwd2c2Yzy7W_j92R-45" style="edgeStyle=orthogonalEdgeStyle;rounded=0;orthogonalLoop=1;jettySize=auto;html=1;exitX=0.5;exitY=0;exitDx=0;exitDy=0;endArrow=none;endFill=0;" parent="1" source="s3fslwd2c2Yzy7W_j92R-32" target="s3fslwd2c2Yzy7W_j92R-42" edge="1">
          <mxGeometry relative="1" as="geometry" />
        </mxCell>
        <mxCell id="s3fslwd2c2Yzy7W_j92R-46" style="edgeStyle=orthogonalEdgeStyle;rounded=0;orthogonalLoop=1;jettySize=auto;html=1;exitX=0.75;exitY=0;exitDx=0;exitDy=0;entryX=0;entryY=0.5;entryDx=0;entryDy=0;endArrow=none;endFill=0;" parent="1" source="s3fslwd2c2Yzy7W_j92R-32" target="s3fslwd2c2Yzy7W_j92R-43" edge="1">
          <mxGeometry relative="1" as="geometry" />
        </mxCell>
        <mxCell id="s3fslwd2c2Yzy7W_j92R-47" style="edgeStyle=orthogonalEdgeStyle;rounded=0;orthogonalLoop=1;jettySize=auto;html=1;exitX=0.25;exitY=0;exitDx=0;exitDy=0;entryX=1;entryY=0.5;entryDx=0;entryDy=0;endArrow=none;endFill=0;" parent="1" source="s3fslwd2c2Yzy7W_j92R-32" target="s3fslwd2c2Yzy7W_j92R-41" edge="1">
          <mxGeometry relative="1" as="geometry" />
        </mxCell>
        <mxCell id="s3fslwd2c2Yzy7W_j92R-48" style="edgeStyle=orthogonalEdgeStyle;rounded=0;orthogonalLoop=1;jettySize=auto;html=1;exitX=0.036;exitY=-0.006;exitDx=0;exitDy=0;entryX=1;entryY=0.5;entryDx=0;entryDy=0;endArrow=none;endFill=0;exitPerimeter=0;" parent="1" source="s3fslwd2c2Yzy7W_j92R-32" target="s3fslwd2c2Yzy7W_j92R-40" edge="1">
          <mxGeometry relative="1" as="geometry" />
        </mxCell>
        <mxCell id="s3fslwd2c2Yzy7W_j92R-49" style="edgeStyle=orthogonalEdgeStyle;rounded=0;orthogonalLoop=1;jettySize=auto;html=1;exitX=0.964;exitY=0.004;exitDx=0;exitDy=0;entryX=0;entryY=0.5;entryDx=0;entryDy=0;endArrow=none;endFill=0;exitPerimeter=0;" parent="1" source="s3fslwd2c2Yzy7W_j92R-32" target="s3fslwd2c2Yzy7W_j92R-44" edge="1">
          <mxGeometry relative="1" as="geometry" />
        </mxCell>
        <mxCell id="s3fslwd2c2Yzy7W_j92R-32" value="Comentario" style="rounded=1;whiteSpace=wrap;html=1;" parent="1" vertex="1">
          <mxGeometry x="890" y="210" width="120" height="60" as="geometry" />
        </mxCell>
        <mxCell id="s3fslwd2c2Yzy7W_j92R-35" style="edgeStyle=orthogonalEdgeStyle;rounded=0;orthogonalLoop=1;jettySize=auto;html=1;exitX=1;exitY=0.5;exitDx=0;exitDy=0;entryX=0;entryY=0.5;entryDx=0;entryDy=0;endArrow=none;endFill=0;" parent="1" source="s3fslwd2c2Yzy7W_j92R-33" target="s3fslwd2c2Yzy7W_j92R-32" edge="1">
          <mxGeometry relative="1" as="geometry" />
        </mxCell>
        <mxCell id="s3fslwd2c2Yzy7W_j92R-33" value="realiza" style="rhombus;whiteSpace=wrap;html=1;" parent="1" vertex="1">
          <mxGeometry x="640" y="200" width="80" height="80" as="geometry" />
        </mxCell>
        <mxCell id="s3fslwd2c2Yzy7W_j92R-38" style="edgeStyle=orthogonalEdgeStyle;rounded=0;orthogonalLoop=1;jettySize=auto;html=1;exitX=0.5;exitY=0;exitDx=0;exitDy=0;entryX=0.5;entryY=1;entryDx=0;entryDy=0;endArrow=none;endFill=0;" parent="1" source="s3fslwd2c2Yzy7W_j92R-36" target="s3fslwd2c2Yzy7W_j92R-32" edge="1">
          <mxGeometry relative="1" as="geometry">
            <Array as="points">
              <mxPoint x="920" y="505" />
              <mxPoint x="920" y="270" />
            </Array>
          </mxGeometry>
        </mxCell>
        <mxCell id="s3fslwd2c2Yzy7W_j92R-36" value="Contiene" style="rhombus;whiteSpace=wrap;html=1;" parent="1" vertex="1">
          <mxGeometry x="880" y="504" width="80" height="80" as="geometry" />
        </mxCell>
        <mxCell id="s3fslwd2c2Yzy7W_j92R-40" value="ID(P.K)" style="ellipse;whiteSpace=wrap;html=1;" parent="1" vertex="1">
          <mxGeometry x="750" y="55" width="110" height="70" as="geometry" />
        </mxCell>
        <mxCell id="s3fslwd2c2Yzy7W_j92R-41" value="Contenido" style="ellipse;whiteSpace=wrap;html=1;" parent="1" vertex="1">
          <mxGeometry x="790" y="-40" width="110" height="70" as="geometry" />
        </mxCell>
        <mxCell id="s3fslwd2c2Yzy7W_j92R-42" value="Fecha" style="ellipse;whiteSpace=wrap;html=1;" parent="1" vertex="1">
          <mxGeometry x="895" y="-130" width="110" height="70" as="geometry" />
        </mxCell>
        <mxCell id="s3fslwd2c2Yzy7W_j92R-43" value="Id_usuario(F.K)" style="ellipse;whiteSpace=wrap;html=1;" parent="1" vertex="1">
          <mxGeometry x="1000" y="-40" width="110" height="70" as="geometry" />
        </mxCell>
        <mxCell id="s3fslwd2c2Yzy7W_j92R-44" value="id_publicacion(F.K)" style="ellipse;whiteSpace=wrap;html=1;" parent="1" vertex="1">
          <mxGeometry x="1030" y="50" width="110" height="70" as="geometry" />
        </mxCell>
        <mxCell id="s3fslwd2c2Yzy7W_j92R-59" style="edgeStyle=orthogonalEdgeStyle;rounded=0;orthogonalLoop=1;jettySize=auto;html=1;exitX=0;exitY=0.5;exitDx=0;exitDy=0;entryX=1;entryY=0.25;entryDx=0;entryDy=0;endArrow=none;endFill=0;" parent="1" source="s3fslwd2c2Yzy7W_j92R-50" target="s3fslwd2c2Yzy7W_j92R-56" edge="1">
          <mxGeometry relative="1" as="geometry" />
        </mxCell>
        <mxCell id="s3fslwd2c2Yzy7W_j92R-50" value="realiza" style="rhombus;whiteSpace=wrap;html=1;" parent="1" vertex="1">
          <mxGeometry x="-400" y="200" width="80" height="80" as="geometry" />
        </mxCell>
        <mxCell id="s3fslwd2c2Yzy7W_j92R-58" style="edgeStyle=orthogonalEdgeStyle;rounded=0;orthogonalLoop=1;jettySize=auto;html=1;exitX=0;exitY=0.5;exitDx=0;exitDy=0;entryX=1;entryY=0.5;entryDx=0;entryDy=0;endArrow=none;endFill=0;" parent="1" source="s3fslwd2c2Yzy7W_j92R-52" target="s3fslwd2c2Yzy7W_j92R-56" edge="1">
          <mxGeometry relative="1" as="geometry">
            <Array as="points">
              <mxPoint x="-510" y="520" />
              <mxPoint x="-510" y="450" />
            </Array>
          </mxGeometry>
        </mxCell>
        <mxCell id="s3fslwd2c2Yzy7W_j92R-52" value="recibe" style="rhombus;whiteSpace=wrap;html=1;" parent="1" vertex="1">
          <mxGeometry x="-400" y="480" width="80" height="80" as="geometry" />
        </mxCell>
        <mxCell id="s3fslwd2c2Yzy7W_j92R-69" style="edgeStyle=orthogonalEdgeStyle;rounded=0;orthogonalLoop=1;jettySize=auto;html=1;exitX=0;exitY=0.75;exitDx=0;exitDy=0;endArrow=none;endFill=0;" parent="1" source="s3fslwd2c2Yzy7W_j92R-56" target="s3fslwd2c2Yzy7W_j92R-60" edge="1">
          <mxGeometry relative="1" as="geometry" />
        </mxCell>
        <mxCell id="s3fslwd2c2Yzy7W_j92R-71" style="edgeStyle=orthogonalEdgeStyle;rounded=0;orthogonalLoop=1;jettySize=auto;html=1;exitX=0;exitY=0.5;exitDx=0;exitDy=0;entryX=1;entryY=0.5;entryDx=0;entryDy=0;endArrow=none;endFill=0;" parent="1" source="s3fslwd2c2Yzy7W_j92R-56" target="s3fslwd2c2Yzy7W_j92R-63" edge="1">
          <mxGeometry relative="1" as="geometry">
            <Array as="points">
              <mxPoint x="-750" y="440" />
              <mxPoint x="-850" y="440" />
              <mxPoint x="-850" y="405" />
            </Array>
          </mxGeometry>
        </mxCell>
        <mxCell id="s3fslwd2c2Yzy7W_j92R-73" style="edgeStyle=orthogonalEdgeStyle;rounded=0;orthogonalLoop=1;jettySize=auto;html=1;exitX=0.017;exitY=0.949;exitDx=0;exitDy=0;entryX=0.5;entryY=0;entryDx=0;entryDy=0;endArrow=none;endFill=0;exitPerimeter=0;" parent="1" source="s3fslwd2c2Yzy7W_j92R-56" target="s3fslwd2c2Yzy7W_j92R-62" edge="1">
          <mxGeometry relative="1" as="geometry">
            <Array as="points">
              <mxPoint x="-748" y="480" />
              <mxPoint x="-805" y="480" />
            </Array>
          </mxGeometry>
        </mxCell>
        <mxCell id="s3fslwd2c2Yzy7W_j92R-56" value="Voto" style="rounded=1;whiteSpace=wrap;html=1;" parent="1" vertex="1">
          <mxGeometry x="-750" y="420" width="120" height="60" as="geometry" />
        </mxCell>
        <mxCell id="s3fslwd2c2Yzy7W_j92R-60" value="Tipo_voto" style="ellipse;whiteSpace=wrap;html=1;" parent="1" vertex="1">
          <mxGeometry x="-1060" y="455" width="110" height="70" as="geometry" />
        </mxCell>
        <mxCell id="s3fslwd2c2Yzy7W_j92R-61" value="ID_usuario(F.K)" style="ellipse;whiteSpace=wrap;html=1;" parent="1" vertex="1">
          <mxGeometry x="-850" y="280" width="110" height="70" as="geometry" />
        </mxCell>
        <mxCell id="s3fslwd2c2Yzy7W_j92R-62" value="ID_publicacion(F-K)" style="ellipse;whiteSpace=wrap;html=1;" parent="1" vertex="1">
          <mxGeometry x="-860" y="580" width="110" height="70" as="geometry" />
        </mxCell>
        <mxCell id="s3fslwd2c2Yzy7W_j92R-63" value="iD_comentario(F.K)" style="ellipse;whiteSpace=wrap;html=1;" parent="1" vertex="1">
          <mxGeometry x="-1060" y="370" width="110" height="70" as="geometry" />
        </mxCell>
        <mxCell id="s3fslwd2c2Yzy7W_j92R-75" style="edgeStyle=orthogonalEdgeStyle;rounded=0;orthogonalLoop=1;jettySize=auto;html=1;exitX=0.013;exitY=0.071;exitDx=0;exitDy=0;endArrow=none;endFill=0;exitPerimeter=0;" parent="1" source="s3fslwd2c2Yzy7W_j92R-56" edge="1">
          <mxGeometry relative="1" as="geometry">
            <mxPoint x="-801" y="350" as="targetPoint" />
            <Array as="points">
              <mxPoint x="-748" y="420" />
              <mxPoint x="-800" y="420" />
              <mxPoint x="-800" y="350" />
            </Array>
          </mxGeometry>
        </mxCell>
        <mxCell id="SWyQn3srLz9zPP-P1V0S-1" value="1:M&lt;br&gt;" style="text;html=1;align=center;verticalAlign=middle;resizable=0;points=[];autosize=1;strokeColor=none;fillColor=none;" vertex="1" parent="1">
          <mxGeometry x="480" y="188" width="40" height="30" as="geometry" />
        </mxCell>
        <mxCell id="SWyQn3srLz9zPP-P1V0S-2" value="1:1" style="text;html=1;align=center;verticalAlign=middle;resizable=0;points=[];autosize=1;strokeColor=none;fillColor=none;" vertex="1" parent="1">
          <mxGeometry x="830" y="198" width="40" height="30" as="geometry" />
        </mxCell>
        <mxCell id="SWyQn3srLz9zPP-P1V0S-3" value="1:M" style="text;html=1;align=center;verticalAlign=middle;resizable=0;points=[];autosize=1;strokeColor=none;fillColor=none;" vertex="1" parent="1">
          <mxGeometry x="650" y="168" width="40" height="30" as="geometry" />
        </mxCell>
        <mxCell id="SWyQn3srLz9zPP-P1V0S-4" value="1:M" style="text;html=1;align=center;verticalAlign=middle;resizable=0;points=[];autosize=1;strokeColor=none;fillColor=none;" vertex="1" parent="1">
          <mxGeometry x="100" y="498" width="40" height="30" as="geometry" />
        </mxCell>
        <mxCell id="SWyQn3srLz9zPP-P1V0S-5" value="1:1" style="text;html=1;align=center;verticalAlign=middle;resizable=0;points=[];autosize=1;strokeColor=none;fillColor=none;" vertex="1" parent="1">
          <mxGeometry x="880" y="270" width="40" height="30" as="geometry" />
        </mxCell>
        <mxCell id="SWyQn3srLz9zPP-P1V0S-6" value="1:M" style="text;html=1;align=center;verticalAlign=middle;resizable=0;points=[];autosize=1;strokeColor=none;fillColor=none;" vertex="1" parent="1">
          <mxGeometry x="860" y="498" width="40" height="30" as="geometry" />
        </mxCell>
        <mxCell id="SWyQn3srLz9zPP-P1V0S-7" value="1:M" style="text;html=1;align=center;verticalAlign=middle;resizable=0;points=[];autosize=1;strokeColor=none;fillColor=none;" vertex="1" parent="1">
          <mxGeometry x="370" y="280" width="40" height="30" as="geometry" />
        </mxCell>
        <mxCell id="SWyQn3srLz9zPP-P1V0S-8" value="1:1" style="text;html=1;align=center;verticalAlign=middle;resizable=0;points=[];autosize=1;strokeColor=none;fillColor=none;" vertex="1" parent="1">
          <mxGeometry x="150" y="428" width="40" height="30" as="geometry" />
        </mxCell>
        <mxCell id="SWyQn3srLz9zPP-P1V0S-9" value="1:M" style="text;html=1;align=center;verticalAlign=middle;resizable=0;points=[];autosize=1;strokeColor=none;fillColor=none;" vertex="1" parent="1">
          <mxGeometry x="370" y="378" width="40" height="30" as="geometry" />
        </mxCell>
        <mxCell id="SWyQn3srLz9zPP-P1V0S-10" value="1:1" style="text;html=1;align=center;verticalAlign=middle;resizable=0;points=[];autosize=1;strokeColor=none;fillColor=none;" vertex="1" parent="1">
          <mxGeometry x="280" y="208" width="40" height="30" as="geometry" />
        </mxCell>
        <mxCell id="SWyQn3srLz9zPP-P1V0S-11" value="1:1" style="text;html=1;align=center;verticalAlign=middle;resizable=0;points=[];autosize=1;strokeColor=none;fillColor=none;" vertex="1" parent="1">
          <mxGeometry x="-640" y="390" width="40" height="30" as="geometry" />
        </mxCell>
        <mxCell id="SWyQn3srLz9zPP-P1V0S-12" value="1:1" style="text;html=1;align=center;verticalAlign=middle;resizable=0;points=[];autosize=1;strokeColor=none;fillColor=none;" vertex="1" parent="1">
          <mxGeometry x="-380" y="168" width="40" height="30" as="geometry" />
        </mxCell>
        <mxCell id="SWyQn3srLz9zPP-P1V0S-13" value="M:1" style="text;html=1;align=center;verticalAlign=middle;resizable=0;points=[];autosize=1;strokeColor=none;fillColor=none;" vertex="1" parent="1">
          <mxGeometry x="-30" y="488" width="40" height="30" as="geometry" />
        </mxCell>
        <mxCell id="SWyQn3srLz9zPP-P1V0S-14" value="1:1" style="text;html=1;align=center;verticalAlign=middle;resizable=0;points=[];autosize=1;strokeColor=none;fillColor=none;" vertex="1" parent="1">
          <mxGeometry x="-500" y="478" width="40" height="30" as="geometry" />
        </mxCell>
        <mxCell id="SWyQn3srLz9zPP-P1V0S-15" value="1:M" style="text;html=1;align=center;verticalAlign=middle;resizable=0;points=[];autosize=1;strokeColor=none;fillColor=none;" vertex="1" parent="1">
          <mxGeometry x="-380" y="440" width="40" height="30" as="geometry" />
        </mxCell>
      </root>
    </mxGraphModel>
  </diagram>
</mxfile>
